<?xml version="1.0" encoding="utf-8"?>
<!-- Generator: Adobe Illustrator 15.1.0, SVG Export Plug-In . SVG Version: 6.00 Build 0)  -->
<!DOCTYPE svg PUBLIC "-//W3C//DTD SVG 1.1//EN" "http://www.w3.org/Graphics/SVG/1.1/DTD/svg11.dtd">
<svg version="1.1" id="Layer_1" xmlns="http://www.w3.org/2000/svg" xmlns:xlink="http://www.w3.org/1999/xlink" x="0px" y="0px"
	 width="125px" height="63px" viewBox="0 0 125 63" enable-background="new 0 0 125 63" xml:space="preserve">
<polygon fill="#334893" points="83.49,19.978 61.737,1.342 28.026,27.038 22.429,21.187 3.73,37.851 22.175,28.31 25.355,32 
	22.175,37.851 42.782,23.349 34.259,34.926 62.118,12.918 51.814,26.911 66.57,18.77 73.947,30.091 73.186,21.06 99.518,33.525 
	87.688,25.257 93.539,22.332 121.27,37.851 93.539,15.971 "/>
<g>
	<path fill="#334893" d="M15.365,39.875l-2.912,19.729H9.596L7.975,48.173L6.381,59.604H3.523L0.61,39.875h2.61l1.868,14.782
		l1.869-14.782h2.061l1.868,14.782l1.868-14.782H15.365z"/>
	<path fill="#334893" d="M16.876,59.604V39.875h2.638v19.729H16.876z"/>
	<path fill="#334893" d="M28.251,59.604h-6.265V39.875h2.638v17.338h3.627V59.604z"/>
	<path fill="#334893" d="M36.027,59.604h-6.265V39.875H32.4v17.338h3.627V59.604z"/>
	<path fill="#334893" d="M37.538,59.604V39.875h2.638v19.729H37.538z"/>
	<path fill="#334893" d="M45.148,59.604h-2.638V43.255c0-2.253,1.054-3.38,3.16-3.38h1.979c2.106,0,3.159,1.127,3.159,3.38v16.349
		h-2.638v-7.227h-3.022V59.604z M48.171,49.986V43.42c0-0.77-0.385-1.154-1.153-1.154h-0.715c-0.77,0-1.154,0.385-1.154,1.154v6.566
		H48.171z"/>
	<path fill="#334893" d="M58.502,51.471l2.446-11.596h2.912v19.729h-2.638l0.274-12.914l-1.979,9.342h-2.033l-1.978-9.342
		l0.274,12.914h-2.638V39.875h2.912L58.502,51.471z"/>
	<path fill="#334893" d="M76.829,48.256v2.391h-3.463v8.957h-2.637V39.875h6.539v2.391h-3.902v5.99H76.829z"/>
	<path fill="#334893" d="M85.319,59.604h-6.266V39.875h2.639v17.338h3.627V59.604z"/>
	<path fill="#334893" d="M89.88,59.604c-2.125,0-3.188-1.117-3.188-3.353V43.255c0-2.253,1.053-3.38,3.16-3.38h2.527
		c2.105,0,3.16,1.127,3.16,3.38v12.996c0,2.235-1.063,3.353-3.188,3.353H89.88z M90.511,57.213h1.348
		c0.695,0,1.043-0.385,1.043-1.154V43.42c0-0.77-0.393-1.154-1.182-1.154h-1.236c-0.77,0-1.152,0.385-1.152,1.154v12.639
		C89.331,56.828,89.724,57.213,90.511,57.213z"/>
	<path fill="#334893" d="M97.876,39.875h5.166c2.014,0,3.021,1.127,3.021,3.38v4.863c0,1.722-0.521,2.813-1.566,3.27l1.842,8.216
		h-2.5l-1.732-7.969h-1.594v7.969h-2.637V39.875z M100.513,49.382h1.732c0.787,0,1.182-0.476,1.182-1.429v-4.259
		c0-0.952-0.395-1.429-1.182-1.429h-1.732V49.382z"/>
	<path fill="#334893" d="M108.261,59.604V39.875h6.541v2.391h-3.902v5.99h3.461v2.391h-3.461v6.566h3.902v2.391H108.261z"/>
	<path fill="#334893" d="M121.751,45.178v-1.73c0-0.787-0.385-1.182-1.154-1.182h-0.412c-0.75,0-1.125,0.395-1.125,1.182v3.27
		c0,0.367,0.072,0.614,0.219,0.742s0.385,0.293,0.715,0.494l2.5,1.347c0.551,0.312,0.939,0.554,1.168,0.729
		c0.229,0.174,0.408,0.384,0.535,0.632c0.129,0.247,0.193,0.719,0.193,1.415v4.204c0,2.216-1.063,3.324-3.188,3.324h-1.621
		c-2.107,0-3.16-1.209-3.16-3.627v-0.989h2.639v1.071c0,0.77,0.393,1.154,1.182,1.154h0.467c0.695,0,1.043-0.385,1.043-1.154v-3.352
		c0-0.366-0.072-0.613-0.219-0.742c-0.146-0.128-0.385-0.293-0.715-0.494l-2.5-1.401c-0.551-0.293-0.949-0.54-1.195-0.742
		c-0.248-0.201-0.426-0.462-0.535-0.783c-0.111-0.32-0.166-0.737-0.166-1.25v-4.039c0-2.253,1.053-3.38,3.16-3.38h1.648
		c2.105,0,3.16,1.127,3.16,3.38v1.923H121.751z"/>
</g>
</svg>
